<svg xmlns="http://www.w3.org/2000/svg" viewBox="0 0 1200 120" width="1200" height="120" role="img" aria-labelledby="title desc">
  <title id="title">Footer</title>
  <desc id="desc">Rodapé minimalista do perfil.</desc>

  <defs>
    <linearGradient id="panelFill" x1="0" y1="0" x2="0" y2="1">
      <stop offset="0%" stop-color="#161B22" />
      <stop offset="100%" stop-color="#0D1117" />
    </linearGradient>
    <linearGradient id="accent" x1="0" y1="0" x2="1" y2="0">
      <stop offset="0%" stop-color="#58A6FF" />
      <stop offset="100%" stop-color="#79C0FF" />
    </linearGradient>
    <style>
      text { font-family: 'Segoe UI', Inter, system-ui, sans-serif; }
      .title { fill: #F0F6FC; font-size: 24px; font-weight: 600; text-anchor: middle; }
      .label { fill: #F0F6FC; font-size: 18px; font-weight: 600; }
      .value { fill: #8B949E; font-size: 18px; font-weight: 600; text-anchor: end; }
      .pill-text { fill: #79C0FF; font-size: 14px; font-weight: 700; text-anchor: middle; dominant-baseline: middle; }
      .eyebrow { fill: #79C0FF; font-size: 14px; font-weight: 700; text-anchor: middle; letter-spacing: 1.2px; }
      .headline { fill: #F0F6FC; font-size: 54px; font-weight: 700; text-anchor: middle; }
      .subtitle { fill: #8B949E; font-size: 20px; font-weight: 500; text-anchor: middle; }
      .body { fill: #8B949E; font-size: 16px; font-weight: 400; text-anchor: middle; }
      .chip-text { fill: #F0F6FC; font-size: 15px; font-weight: 600; text-anchor: middle; dominant-baseline: middle; }
    </style>
    
  </defs>

  <rect width="1200" height="120" rx="28" fill="#0D1117" />
  <rect x="14" y="14" width="1172" height="92" rx="26" fill="url(#panelFill)" stroke="#30363D" stroke-width="2" />
  <rect x="34" y="34" width="1132" height="52" rx="22" fill="none" stroke="#21262D" stroke-width="1" />
  <line x1="160" y1="42" x2="1040" y2="42" stroke="#30363D" stroke-width="1" />
  <line x1="510" y1="42" x2="690" y2="42" stroke="url(#accent)" stroke-width="3" stroke-linecap="round" opacity="0.9" />
  <text x="600" y="76" class="subtitle">Felipe Braga</text>
  <text x="600" y="98" class="body">Obrigado pela visita. Este perfil é atualizado automaticamente.</text>

  <g transform="translate(1088 62)" shape-rendering="crispEdges" opacity="0.62">
    <g transform="translate(0 14)">
      <animateTransform attributeName="transform" type="rotate" values="0 4 6;10 4 6;0 4 6;-6 4 6;0 4 6" dur="7s" repeatCount="indefinite" />
      <rect x="0" y="8" width="4" height="4" fill="#30363D" />
      <rect x="4" y="4" width="4" height="4" fill="#30363D" />
      <rect x="8" y="0" width="4" height="4" fill="#30363D" />
      <rect x="8" y="4" width="4" height="4" fill="#30363D" />
      <rect x="8" y="8" width="4" height="4" fill="#30363D" />
    </g>
    <g>
      <rect x="12" y="0" width="4" height="4" fill="#30363D" />
      <rect x="24" y="0" width="4" height="4" fill="#30363D" />
      <rect x="8" y="4" width="4" height="4" fill="#30363D" />
      <rect x="12" y="4" width="4" height="4" fill="#30363D" />
      <rect x="16" y="4" width="4" height="4" fill="#30363D" />
      <rect x="20" y="4" width="4" height="4" fill="#30363D" />
      <rect x="24" y="4" width="4" height="4" fill="#30363D" />
      <rect x="28" y="4" width="4" height="4" fill="#30363D" />
      <rect x="8" y="8" width="4" height="4" fill="#30363D" />
      <rect x="12" y="8" width="4" height="4" fill="#30363D" />
      <rect x="16" y="8" width="4" height="4" fill="#30363D" />
      <rect x="20" y="8" width="4" height="4" fill="#30363D" />
      <rect x="24" y="8" width="4" height="4" fill="#30363D" />
      <rect x="28" y="8" width="4" height="4" fill="#30363D" />
      <rect x="8" y="12" width="4" height="4" fill="#30363D" />
      <rect x="12" y="12" width="4" height="4" fill="#30363D" />
      <rect x="16" y="12" width="4" height="4" fill="#30363D" />
      <rect x="20" y="12" width="4" height="4" fill="#30363D" />
      <rect x="24" y="12" width="4" height="4" fill="#30363D" />
      <rect x="28" y="12" width="4" height="4" fill="#30363D" />
      <rect x="12" y="16" width="4" height="4" fill="#30363D" />
      <rect x="16" y="16" width="4" height="4" fill="#30363D" />
      <rect x="20" y="16" width="4" height="4" fill="#30363D" />
      <rect x="24" y="16" width="4" height="4" fill="#30363D" />
      <rect x="12" y="20" width="4" height="4" fill="#30363D" />
      <rect x="16" y="20" width="4" height="4" fill="#30363D" />
      <rect x="20" y="20" width="4" height="4" fill="#30363D" />
      <rect x="24" y="20" width="4" height="4" fill="#30363D" />
      <rect x="12" y="24" width="4" height="4" fill="#30363D" />
      <rect x="24" y="24" width="4" height="4" fill="#30363D" />
      <rect x="12" y="28" width="4" height="4" fill="#30363D" />
      <rect x="24" y="28" width="4" height="4" fill="#30363D" />
    </g>
    <g fill="#F0F6FC">
      <rect x="16" y="12" width="4" height="4">
        <animate attributeName="opacity" values="1;1;1;0;1;1" dur="6.5s" repeatCount="indefinite" />
      </rect>
      <rect x="24" y="12" width="4" height="4">
        <animate attributeName="opacity" values="1;1;1;0;1;1" dur="6.5s" repeatCount="indefinite" />
      </rect>
    </g>
  </g>
</svg>
